<svg xmlns="http://www.w3.org/2000/svg" xmlns:xlink="http://www.w3.org/1999/xlink" contentStyleType="text/css" height="928px" preserveAspectRatio="none" style="width:1772px;height:928px;background:#FFFFFF;" version="1.1" viewBox="0 0 1772 928" width="1772px" zoomAndPan="magnify"><defs/><g><!--class FitTrack--><g id="elem_FitTrack"><rect codeLine="11" fill="#FFFFFF" height="44.6211" id="FitTrack" rx="2.5" ry="2.5" style="stroke:#000000;stroke-width:0.5;" width="56.5518" x="911" y="152"/><text fill="#000000" font-family="sans-serif" font-size="14" lengthAdjust="spacing" textLength="50.5518" x="914" y="172.1074">FitTrack</text><line style="stroke:#000000;stroke-width:0.5;" x1="912" x2="966.5518" y1="180.6211" y2="180.6211"/><line style="stroke:#000000;stroke-width:0.5;" x1="912" x2="966.5518" y1="188.6211" y2="188.6211"/></g><!--class Parser--><g id="elem_Parser"><rect codeLine="14" fill="#FFFFFF" height="44.6211" id="Parser" rx="2.5" ry="2.5" style="stroke:#000000;stroke-width:0.5;" width="47.2344" x="826" y="442"/><text fill="#000000" font-family="sans-serif" font-size="14" lengthAdjust="spacing" textLength="41.2344" x="829" y="462.1074">Parser</text><line style="stroke:#000000;stroke-width:0.5;" x1="827" x2="872.2344" y1="470.6211" y2="470.6211"/><line style="stroke:#000000;stroke-width:0.5;" x1="827" x2="872.2344" y1="478.6211" y2="478.6211"/></g><!--class Ui--><g id="elem_Ui"><rect codeLine="17" fill="#FFFFFF" height="44.6211" id="Ui" rx="2.5" ry="2.5" style="stroke:#000000;stroke-width:0.5;" width="19.2207" x="1371" y="587"/><text fill="#000000" font-family="sans-serif" font-size="14" lengthAdjust="spacing" textLength="13.2207" x="1374" y="607.1074">Ui</text><line style="stroke:#000000;stroke-width:0.5;" x1="1372" x2="1389.2207" y1="615.6211" y2="615.6211"/><line style="stroke:#000000;stroke-width:0.5;" x1="1372" x2="1389.2207" y1="623.6211" y2="623.6211"/></g><!--class Storage--><g id="elem_Storage"><rect codeLine="20" fill="#FFFFFF" height="44.6211" id="Storage" rx="2.5" ry="2.5" style="stroke:#000000;stroke-width:0.5;" width="55.0342" x="1710" y="442"/><text fill="#000000" font-family="sans-serif" font-size="14" lengthAdjust="spacing" textLength="49.0342" x="1713" y="462.1074">Storage</text><line style="stroke:#000000;stroke-width:0.5;" x1="1711" x2="1764.0342" y1="470.6211" y2="470.6211"/><line style="stroke:#000000;stroke-width:0.5;" x1="1711" x2="1764.0342" y1="478.6211" y2="478.6211"/></g><!--class TrainingSession--><g id="elem_TrainingSession"><rect codeLine="23" fill="#FFFFFF" height="44.6211" id="TrainingSession" rx="2.5" ry="2.5" style="stroke:#000000;stroke-width:0.5;" width="106.3857" x="716.5" y="587"/><text fill="#000000" font-family="sans-serif" font-size="14" lengthAdjust="spacing" textLength="100.3857" x="719.5" y="607.1074">TrainingSession</text><line style="stroke:#000000;stroke-width:0.5;" x1="717.5" x2="821.8857" y1="615.6211" y2="615.6211"/><line style="stroke:#000000;stroke-width:0.5;" x1="717.5" x2="821.8857" y1="623.6211" y2="623.6211"/></g><!--class User--><g id="elem_User"><rect codeLine="26" fill="#FFFFFF" height="44.6211" id="User" rx="2.5" ry="2.5" style="stroke:#000000;stroke-width:0.5;" width="35.5586" x="491.5" y="297"/><text fill="#000000" font-family="sans-serif" font-size="14" lengthAdjust="spacing" textLength="29.5586" x="494.5" y="317.1074">User</text><line style="stroke:#000000;stroke-width:0.5;" x1="492.5" x2="526.0586" y1="325.6211" y2="325.6211"/><line style="stroke:#000000;stroke-width:0.5;" x1="492.5" x2="526.0586" y1="333.6211" y2="333.6211"/></g><!--class FitTrackLogger--><g id="elem_FitTrackLogger"><rect codeLine="29" fill="#FFFFFF" height="44.6211" id="FitTrackLogger" rx="2.5" ry="2.5" style="stroke:#000000;stroke-width:0.5;" width="100.1445" x="889.5" y="7"/><text fill="#000000" font-family="sans-serif" font-size="14" lengthAdjust="spacing" textLength="94.1445" x="892.5" y="27.1074">FitTrackLogger</text><line style="stroke:#000000;stroke-width:0.5;" x1="890.5" x2="988.6445" y1="35.6211" y2="35.6211"/><line style="stroke:#000000;stroke-width:0.5;" x1="890.5" x2="988.6445" y1="43.6211" y2="43.6211"/></g><!--class ExerciseStation--><g id="elem_ExerciseStation"><rect codeLine="32" fill="#FFFFFF" height="44.6211" id="ExerciseStation" rx="2.5" ry="2.5" style="stroke:#000000;stroke-width:0.5;" width="103.2686" x="718" y="732"/><text fill="#000000" font-family="sans-serif" font-size="14" lengthAdjust="spacing" textLength="97.2686" x="721" y="752.1074">ExerciseStation</text><line style="stroke:#000000;stroke-width:0.5;" x1="719" x2="820.2686" y1="760.6211" y2="760.6211"/><line style="stroke:#000000;stroke-width:0.5;" x1="719" x2="820.2686" y1="768.6211" y2="768.6211"/></g><!--class Calculator--><g id="elem_Calculator"><rect codeLine="35" fill="#FFFFFF" height="44.6211" id="Calculator" rx="2.5" ry="2.5" style="stroke:#000000;stroke-width:0.5;" width="69.0273" x="735" y="877"/><text fill="#000000" font-family="sans-serif" font-size="14" lengthAdjust="spacing" textLength="63.0273" x="738" y="897.1074">Calculator</text><line style="stroke:#000000;stroke-width:0.5;" x1="736" x2="803.0273" y1="905.6211" y2="905.6211"/><line style="stroke:#000000;stroke-width:0.5;" x1="736" x2="803.0273" y1="913.6211" y2="913.6211"/></g><!--class GraphPerformance--><g id="elem_GraphPerformance"><rect codeLine="38" fill="#FFFFFF" height="44.6211" id="GraphPerformance" rx="2.5" ry="2.5" style="stroke:#000000;stroke-width:0.5;" width="125.0547" x="1096" y="587"/><text fill="#000000" font-family="sans-serif" font-size="14" lengthAdjust="spacing" textLength="119.0547" x="1099" y="607.1074">GraphPerformance</text><line style="stroke:#000000;stroke-width:0.5;" x1="1097" x2="1220.0547" y1="615.6211" y2="615.6211"/><line style="stroke:#000000;stroke-width:0.5;" x1="1097" x2="1220.0547" y1="623.6211" y2="623.6211"/></g><!--class GraphPoints--><g id="elem_GraphPoints"><rect codeLine="41" fill="#FFFFFF" height="44.6211" id="GraphPoints" rx="2.5" ry="2.5" style="stroke:#000000;stroke-width:0.5;" width="83.8203" x="1338.5" y="732"/><text fill="#000000" font-family="sans-serif" font-size="14" lengthAdjust="spacing" textLength="77.8203" x="1341.5" y="752.1074">GraphPoints</text><line style="stroke:#000000;stroke-width:0.5;" x1="1339.5" x2="1421.3203" y1="760.6211" y2="760.6211"/><line style="stroke:#000000;stroke-width:0.5;" x1="1339.5" x2="1421.3203" y1="768.6211" y2="768.6211"/></g><!--class Reminder--><g id="elem_Reminder"><rect codeLine="44" fill="#FFFFFF" height="44.6211" id="Reminder" rx="2.5" ry="2.5" style="stroke:#000000;stroke-width:0.5;" width="66.6895" x="1166" y="297"/><text fill="#000000" font-family="sans-serif" font-size="14" lengthAdjust="spacing" textLength="60.6895" x="1169" y="317.1074">Reminder</text><line style="stroke:#000000;stroke-width:0.5;" x1="1167" x2="1231.6895" y1="325.6211" y2="325.6211"/><line style="stroke:#000000;stroke-width:0.5;" x1="1167" x2="1231.6895" y1="333.6211" y2="333.6211"/></g><!--class Goal--><g id="elem_Goal"><rect codeLine="47" fill="#FFFFFF" height="44.6211" id="Goal" rx="2.5" ry="2.5" style="stroke:#000000;stroke-width:0.5;" width="35.5723" x="677.5" y="297"/><text fill="#000000" font-family="sans-serif" font-size="14" lengthAdjust="spacing" textLength="29.5723" x="680.5" y="317.1074">Goal</text><line style="stroke:#000000;stroke-width:0.5;" x1="678.5" x2="712.0723" y1="325.6211" y2="325.6211"/><line style="stroke:#000000;stroke-width:0.5;" x1="678.5" x2="712.0723" y1="333.6211" y2="333.6211"/></g><!--class FoodWaterIntake--><g id="elem_FoodWaterIntake"><rect codeLine="50" fill="#FFFFFF" height="44.6211" id="FoodWaterIntake" rx="2.5" ry="2.5" style="stroke:#000000;stroke-width:0.5;" width="113.3857" x="7" y="297"/><text fill="#000000" font-family="sans-serif" font-size="14" lengthAdjust="spacing" textLength="107.3857" x="10" y="317.1074">FoodWaterIntake</text><line style="stroke:#000000;stroke-width:0.5;" x1="8" x2="119.3857" y1="325.6211" y2="325.6211"/><line style="stroke:#000000;stroke-width:0.5;" x1="8" x2="119.3857" y1="333.6211" y2="333.6211"/></g><!--class FoodEntry--><g id="elem_FoodEntry"><rect codeLine="53" fill="#FFFFFF" height="44.6211" id="FoodEntry" rx="2.5" ry="2.5" style="stroke:#000000;stroke-width:0.5;" width="70.5859" x="270" y="297"/><text fill="#000000" font-family="sans-serif" font-size="14" lengthAdjust="spacing" textLength="64.5859" x="273" y="317.1074">FoodEntry</text><line style="stroke:#000000;stroke-width:0.5;" x1="271" x2="339.5859" y1="325.6211" y2="325.6211"/><line style="stroke:#000000;stroke-width:0.5;" x1="271" x2="339.5859" y1="333.6211" y2="333.6211"/></g><!--class WaterEntry--><g id="elem_WaterEntry"><rect codeLine="56" fill="#FFFFFF" height="44.6211" id="WaterEntry" rx="2.5" ry="2.5" style="stroke:#000000;stroke-width:0.5;" width="76.0137" x="25.5" y="442"/><text fill="#000000" font-family="sans-serif" font-size="14" lengthAdjust="spacing" textLength="70.0137" x="28.5" y="462.1074">WaterEntry</text><line style="stroke:#000000;stroke-width:0.5;" x1="26.5" x2="100.5137" y1="470.6211" y2="470.6211"/><line style="stroke:#000000;stroke-width:0.5;" x1="26.5" x2="100.5137" y1="478.6211" y2="478.6211"/></g><!--reverse link FitTrackLogger to FitTrack--><g id="link_FitTrackLogger_FitTrack"><path codeLine="60" d="M939.5,58.16 C939.5,85.24 939.5,124.3 939.5,151.52 " fill="none" id="FitTrackLogger-backto-FitTrack" style="stroke:#181818;stroke-width:1.0;"/><polygon fill="#181818" points="939.5,52.16,935.5,61.16,939.5,57.16,943.5,61.16,939.5,52.16" style="stroke:#181818;stroke-width:1.0;"/><polygon fill="#000000" points="902.5,87.4855,899.5611,96.5306,905.4389,96.5306,902.5,87.4855" style="stroke:#000000;stroke-width:1.0;"/><text fill="#000000" font-family="sans-serif" font-size="13" lengthAdjust="spacing" textLength="27.46" x="911.5" y="97.8683">uses</text></g><!--link FitTrack to Reminder--><g id="link_FitTrack_Reminder"><path codeLine="61" d="M939.5,197.21 C939.5,236.26 939.5,312 939.5,312 C939.5,312 1089.43,312 1159.78,312 " fill="none" id="FitTrack-to-Reminder" style="stroke:#181818;stroke-width:1.0;"/><polygon fill="#181818" points="1165.78,312,1156.78,308,1160.78,312,1156.78,316,1165.78,312" style="stroke:#181818;stroke-width:1.0;"/><polygon fill="#000000" points="1004.6741,304.9561,998.0109,298.1699,995.2946,303.3824,1004.6741,304.9561" style="stroke:#000000;stroke-width:1.0;"/><text fill="#000000" font-family="sans-serif" font-size="13" lengthAdjust="spacing" textLength="27.46" x="1009.24" y="308.0283">uses</text></g><!--link FitTrack to FoodWaterIntake--><g id="link_FitTrack_FoodWaterIntake"><path codeLine="62" d="M910.85,161 C759.88,161 63.5,161 63.5,161 C63.5,161 63.5,246.96 63.5,290.79 " fill="none" id="FitTrack-to-FoodWaterIntake" style="stroke:#181818;stroke-width:1.0;"/><polygon fill="#181818" points="63.5,296.79,67.5,287.79,63.5,291.79,59.5,287.79,63.5,296.79" style="stroke:#181818;stroke-width:1.0;"/><polygon fill="#000000" points="377.3376,152.4025,386.7234,153.9381,385.8335,148.128,377.3376,152.4025" style="stroke:#000000;stroke-width:1.0;"/><text fill="#000000" font-family="sans-serif" font-size="13" lengthAdjust="spacing" textLength="27.46" x="391.28" y="157.0283">uses</text></g><!--link FitTrack to Storage--><g id="link_FitTrack_Storage"><path codeLine="63" d="M968.37,167 C1111.44,167 1737.5,167 1737.5,167 C1737.5,167 1737.5,365.99 1737.5,435.65 " fill="none" id="FitTrack-to-Storage" style="stroke:#181818;stroke-width:1.0;"/><polygon fill="#181818" points="1737.5,441.65,1741.5,432.65,1737.5,436.65,1733.5,432.65,1737.5,441.65" style="stroke:#181818;stroke-width:1.0;"/><polygon fill="#000000" points="1457.9803,159.2943,1450.4103,153.5371,1448.472,159.0862,1457.9803,159.2943" style="stroke:#000000;stroke-width:1.0;"/><text fill="#000000" font-family="sans-serif" font-size="13" lengthAdjust="spacing" textLength="27.46" x="1462.26" y="163.0283">uses</text></g><!--link FitTrack to Goal--><g id="link_FitTrack_Goal"><path codeLine="64" d="M910.55,179 C845.92,179 695.5,179 695.5,179 C695.5,179 695.5,251.21 695.5,290.93 " fill="none" id="FitTrack-to-Goal" style="stroke:#181818;stroke-width:1.0;"/><polygon fill="#181818" points="695.5,296.93,699.5,287.93,695.5,291.93,691.5,287.93,695.5,296.93" style="stroke:#181818;stroke-width:1.0;"/><polygon fill="#000000" points="702.6248,171.954,712.005,170.3849,709.2913,165.171,702.6248,171.954" style="stroke:#000000;stroke-width:1.0;"/><text fill="#000000" font-family="sans-serif" font-size="13" lengthAdjust="spacing" textLength="27.46" x="716.06" y="175.0283">uses</text></g><!--link FitTrack to User--><g id="link_FitTrack_User"><path codeLine="65" d="M910.95,170 C814.91,170 509.5,170 509.5,170 C509.5,170 509.5,248.97 509.5,290.79 " fill="none" id="FitTrack-to-User" style="stroke:#181818;stroke-width:1.0;"/><polygon fill="#181818" points="509.5,296.79,513.5,287.79,509.5,291.79,505.5,287.79,509.5,296.79" style="stroke:#181818;stroke-width:1.0;"/><polygon fill="#000000" points="590.042,162.0861,599.5503,162.2943,597.8568,156.6657,590.042,162.0861" style="stroke:#000000;stroke-width:1.0;"/><text fill="#000000" font-family="sans-serif" font-size="13" lengthAdjust="spacing" textLength="42.6309" x="603.83" y="166.0283">creates</text><text fill="#000000" font-family="sans-serif" font-size="13" lengthAdjust="spacing" textLength="7.23" x="501.6891" y="285.9066">1</text></g><!--link FitTrack to Parser--><g id="link_FitTrack_Parser"><path codeLine="66" d="M910.94,188 C882.06,188 841.67,188 841.67,188 C841.67,188 841.67,369.84 841.67,435.87 " fill="none" id="FitTrack-to-Parser" style="stroke:#181818;stroke-width:1.0;"/><polygon fill="#181818" points="841.67,441.87,845.67,432.87,841.67,436.87,837.67,432.87,841.67,441.87" style="stroke:#181818;stroke-width:1.0;"/><polygon fill="#000000" points="803.3243,275.761,808.5892,267.8407,802.9283,266.2587,803.3243,275.761" style="stroke:#000000;stroke-width:1.0;"/><text fill="#000000" font-family="sans-serif" font-size="13" lengthAdjust="spacing" textLength="27.46" x="813.67" y="276.3283">uses</text></g><!--link FitTrack to Ui--><g id="link_FitTrack_Ui"><path codeLine="67" d="M968.3,182 C1066.73,182 1383.67,182 1383.67,182 C1383.67,182 1383.67,492.44 1383.67,580.82 " fill="none" id="FitTrack-to-Ui" style="stroke:#181818;stroke-width:1.0;"/><polygon fill="#181818" points="1383.67,586.82,1387.67,577.82,1383.67,581.82,1379.67,577.82,1383.67,586.82" style="stroke:#181818;stroke-width:1.0;"/><polygon fill="#000000" points="1344.9967,176.1085,1340.5076,167.724,1336.4367,171.9639,1344.9967,176.1085" style="stroke:#000000;stroke-width:1.0;"/><text fill="#000000" font-family="sans-serif" font-size="13" lengthAdjust="spacing" textLength="27.46" x="1350.39" y="178.0283">uses</text></g><!--link Parser to Ui--><g id="link_Parser_Ui"><path codeLine="69" d="M873.21,472 C975.91,472 1377.33,472 1377.33,472 C1377.33,472 1377.33,541.74 1377.33,580.79 " fill="none" id="Parser-to-Ui" style="stroke:#181818;stroke-width:1.0;"/><polygon fill="#181818" points="1377.33,586.79,1381.33,577.79,1377.33,581.79,1373.33,577.79,1377.33,586.79" style="stroke:#181818;stroke-width:1.0;"/><polygon fill="#000000" points="1150.5575,463.7002,1142.3359,458.9194,1141.096,464.665,1150.5575,463.7002" style="stroke:#000000;stroke-width:1.0;"/><text fill="#000000" font-family="sans-serif" font-size="13" lengthAdjust="spacing" textLength="27.46" x="1154.67" y="468.0283">uses</text></g><!--reverse link User to Parser--><g id="link_User_Parser"><path codeLine="70" d="M515.5,348.23 C515.5,389.16 515.5,465 515.5,465 C515.5,465 749.44,465 825.75,465 " fill="none" id="User-backto-Parser" style="stroke:#181818;stroke-width:1.0;"/><polygon fill="#181818" points="515.5,342.23,511.5,351.23,515.5,347.23,519.5,351.23,515.5,342.23" style="stroke:#181818;stroke-width:1.0;"/><polygon fill="#000000" points="567.5605,453.8843,574.9906,459.8209,577.0611,454.3198,567.5605,453.8843" style="stroke:#000000;stroke-width:1.0;"/><text fill="#000000" font-family="sans-serif" font-size="13" lengthAdjust="spacing" textLength="27.46" x="581.24" y="461.0283">edits</text><text fill="#000000" font-family="sans-serif" font-size="13" lengthAdjust="spacing" textLength="7.23" x="509.1558" y="363.5577">1</text></g><!--link Parser to TrainingSession--><g id="link_Parser_TrainingSession"><path codeLine="71" d="M849.5,487.23 C849.5,528.16 849.5,610 849.5,610 C849.5,610 843.54,610 828.86,610 " fill="none" id="Parser-to-TrainingSession" style="stroke:#181818;stroke-width:1.0;"/><polygon fill="#181818" points="822.86,610,831.86,614,827.86,610,831.86,606,822.86,610" style="stroke:#181818;stroke-width:1.0;"/><polygon fill="#000000" points="785.671,557.5163,790.0689,549.0837,784.2724,548.1092,785.671,557.5163" style="stroke:#000000;stroke-width:1.0;"/><text fill="#000000" font-family="sans-serif" font-size="13" lengthAdjust="spacing" textLength="53.479" x="795.5" y="557.9683">manages</text><text fill="#000000" font-family="sans-serif" font-size="13" lengthAdjust="spacing" textLength="5.0591" x="831.0404" y="605.9025">*</text></g><!--link Parser to Storage--><g id="link_Parser_Storage"><path codeLine="72" d="M873.25,457 C997.92,457 1570.03,457 1703.81,457 " fill="none" id="Parser-to-Storage" style="stroke:#181818;stroke-width:1.0;"/><polygon fill="#181818" points="1709.81,457,1700.81,453,1704.81,457,1700.81,461,1709.81,457" style="stroke:#181818;stroke-width:1.0;"/><polygon fill="#000000" points="1233.53,447.6455,1224.4849,444.7066,1224.4849,450.5844,1233.53,447.6455" style="stroke:#000000;stroke-width:1.0;"/><text fill="#000000" font-family="sans-serif" font-size="13" lengthAdjust="spacing" textLength="53.479" x="1237.53" y="453.0283">manages</text><text fill="#000000" font-family="sans-serif" font-size="13" lengthAdjust="spacing" textLength="5.0591" x="1697.077" y="450.0142">*</text></g><!--reverse link Goal to Parser--><g id="link_Goal_Parser"><path codeLine="73" d="M695.5,348.01 C695.5,386.3 695.5,454 695.5,454 C695.5,454 782.58,454 825.77,454 " fill="none" id="Goal-backto-Parser" style="stroke:#181818;stroke-width:1.0;"/><polygon fill="#181818" points="695.5,342.01,691.5,351.01,695.5,347.01,699.5,351.01,695.5,342.01" style="stroke:#181818;stroke-width:1.0;"/><polygon fill="#000000" points="663.7616,441.4899,668.9229,449.4781,672.6325,444.9187,663.7616,441.4899" style="stroke:#000000;stroke-width:1.0;"/><text fill="#000000" font-family="sans-serif" font-size="13" lengthAdjust="spacing" textLength="27.46" x="676.64" y="450.0283">uses</text><text fill="#000000" font-family="sans-serif" font-size="13" lengthAdjust="spacing" textLength="7.23" x="687.727" y="363.6787">1</text></g><!--reverse link Reminder to Parser--><g id="link_Reminder_Parser"><path codeLine="74" d="M1159.76,327 C1073.43,327 857.33,327 857.33,327 C857.33,327 857.33,402.74 857.33,441.79 " fill="none" id="Reminder-backto-Parser" style="stroke:#181818;stroke-width:1.0;"/><polygon fill="#181818" points="1165.76,327,1156.76,323,1160.76,327,1156.76,331,1165.76,327" style="stroke:#181818;stroke-width:1.0;"/><polygon fill="#000000" points="921.8246,315.8712,912.3253,316.3333,914.4111,321.8286,921.8246,315.8712" style="stroke:#000000;stroke-width:1.0;"/><text fill="#000000" font-family="sans-serif" font-size="13" lengthAdjust="spacing" textLength="27.46" x="926.15" y="323.0283">uses</text><text fill="#000000" font-family="sans-serif" font-size="13" lengthAdjust="spacing" textLength="7.23" x="1150.6729" y="323.8828">1</text></g><!--reverse link FoodWaterIntake to Parser--><g id="link_FoodWaterIntake_Parser"><path codeLine="75" d="M110.75,348.26 C110.75,391.66 110.75,476 110.75,476 C110.75,476 699.31,476 825.76,476 " fill="none" id="FoodWaterIntake-backto-Parser" style="stroke:#181818;stroke-width:1.0;"/><polygon fill="#181818" points="110.75,342.26,106.75,351.26,110.75,347.26,114.75,351.26,110.75,342.26" style="stroke:#181818;stroke-width:1.0;"/><polygon fill="#000000" points="359.4579,465.7662,367.8452,470.25,368.8789,464.4638,359.4579,465.7662" style="stroke:#000000;stroke-width:1.0;"/><text fill="#000000" font-family="sans-serif" font-size="13" lengthAdjust="spacing" textLength="27.46" x="373.38" y="472.0283">uses</text><text fill="#000000" font-family="sans-serif" font-size="13" lengthAdjust="spacing" textLength="7.23" x="113.8492" y="363.5947">1</text></g><!--reverse link GraphPerformance to Ui--><g id="link_GraphPerformance_Ui"><path codeLine="77" d="M1227.23,610 C1280.05,610 1344.99,610 1370.69,610 " fill="none" id="GraphPerformance-backto-Ui" style="stroke:#181818;stroke-width:1.0;"/><polygon fill="#181818" points="1221.23,610,1230.23,614,1226.23,610,1230.23,606,1221.23,610" style="stroke:#181818;stroke-width:1.0;"/><polygon fill="#000000" points="1251.96,600.6455,1261.0051,603.5844,1261.0051,597.7066,1251.96,600.6455" style="stroke:#000000;stroke-width:1.0;"/><text fill="#000000" font-family="sans-serif" font-size="13" lengthAdjust="spacing" textLength="29.6182" x="1265.96" y="606.0283">Uses</text></g><!--link Ui to GraphPoints--><g id="link_Ui_GraphPoints"><path codeLine="78" d="M1380.5,632.16 C1380.5,659.24 1380.5,698.3 1380.5,725.52 " fill="none" id="Ui-to-GraphPoints" style="stroke:#181818;stroke-width:1.0;"/><polygon fill="#181818" points="1380.5,731.52,1384.5,722.52,1380.5,726.52,1376.5,722.52,1380.5,731.52" style="stroke:#181818;stroke-width:1.0;"/><polygon fill="#000000" points="1341.5,677.4855,1344.4389,668.4404,1338.5611,668.4404,1341.5,677.4855" style="stroke:#000000;stroke-width:1.0;"/><text fill="#000000" font-family="sans-serif" font-size="13" lengthAdjust="spacing" textLength="29.6182" x="1350.5" y="677.8683">Uses</text></g><!--reverse link User to TrainingSession--><g id="link_User_TrainingSession"><path codeLine="80" d="M503.5,348.3 C503.5,416.78 503.5,610 503.5,610 C503.5,610 638.68,610 716.31,610 " fill="none" id="User-backto-TrainingSession" style="stroke:#181818;stroke-width:1.0;"/><polygon fill="#181818" points="503.5,342.3,499.5,351.3,503.5,347.3,507.5,351.3,503.5,342.3" style="stroke:#181818;stroke-width:1.0;"/><polygon fill="#000000" points="431.3454,569.3162,434.7719,578.1881,439.3323,574.4797,431.3454,569.3162" style="stroke:#000000;stroke-width:1.0;"/><text fill="#000000" font-family="sans-serif" font-size="13" lengthAdjust="spacing" textLength="59.9917" x="443.5" y="578.5783">belongs to</text><text fill="#000000" font-family="sans-serif" font-size="13" lengthAdjust="spacing" textLength="7.23" x="494.3808" y="363.6439">1</text><text fill="#000000" font-family="sans-serif" font-size="13" lengthAdjust="spacing" textLength="5.0591" x="703.4556" y="605.9504">*</text></g><!--link TrainingSession to ExerciseStation--><g id="link_TrainingSession_ExerciseStation"><path codeLine="81" d="M769.5,632.16 C769.5,659.24 769.5,698.3 769.5,725.52 " fill="none" id="TrainingSession-to-ExerciseStation" style="stroke:#181818;stroke-width:1.0;"/><polygon fill="#181818" points="769.5,731.52,773.5,722.52,769.5,726.52,765.5,722.52,769.5,731.52" style="stroke:#181818;stroke-width:1.0;"/><polygon fill="#000000" points="711.5,677.4855,714.4389,668.4404,708.5611,668.4404,711.5,677.4855" style="stroke:#000000;stroke-width:1.0;"/><text fill="#000000" font-family="sans-serif" font-size="13" lengthAdjust="spacing" textLength="48.4199" x="720.5" y="677.8683">contains</text><text fill="#000000" font-family="sans-serif" font-size="13" lengthAdjust="spacing" textLength="7.23" x="761.6726" y="653.4715">1</text><text fill="#000000" font-family="sans-serif" font-size="13" lengthAdjust="spacing" textLength="7.23" x="761.5982" y="720.5674">6</text></g><!--link ExerciseStation to Calculator--><g id="link_ExerciseStation_Calculator"><path codeLine="83" d="M769.5,777.16 C769.5,804.24 769.5,843.3 769.5,870.52 " fill="none" id="ExerciseStation-to-Calculator" style="stroke:#181818;stroke-width:1.0;"/><polygon fill="#181818" points="769.5,876.52,773.5,867.52,769.5,871.52,765.5,867.52,769.5,876.52" style="stroke:#181818;stroke-width:1.0;"/><polygon fill="#000000" points="732.5,822.4855,735.4389,813.4404,729.5611,813.4404,732.5,822.4855" style="stroke:#000000;stroke-width:1.0;"/><text fill="#000000" font-family="sans-serif" font-size="13" lengthAdjust="spacing" textLength="27.46" x="741.5" y="822.8683">uses</text><text fill="#000000" font-family="sans-serif" font-size="13" lengthAdjust="spacing" textLength="7.23" x="761.6862" y="798.4715">1</text><text fill="#000000" font-family="sans-serif" font-size="13" lengthAdjust="spacing" textLength="7.23" x="761.6291" y="865.5674">1</text></g><!--link FoodWaterIntake to FoodEntry--><g id="link_FoodWaterIntake_FoodEntry"><path codeLine="85" d="M120.24,320 C166.48,320 224.36,320 263.75,320 " fill="none" id="FoodWaterIntake-to-FoodEntry" style="stroke:#181818;stroke-width:1.0;"/><polygon fill="#181818" points="269.75,320,260.75,316,264.75,320,260.75,324,269.75,320" style="stroke:#181818;stroke-width:1.0;"/><polygon fill="#000000" points="162.99,310.6455,153.9449,307.7066,153.9449,313.5844,162.99,310.6455" style="stroke:#000000;stroke-width:1.0;"/><text fill="#000000" font-family="sans-serif" font-size="13" lengthAdjust="spacing" textLength="27.46" x="166.99" y="316.0283">uses</text></g><!--link FoodWaterIntake to WaterEntry--><g id="link_FoodWaterIntake_WaterEntry"><path codeLine="86" d="M63.5,342.16 C63.5,369.24 63.5,408.3 63.5,435.52 " fill="none" id="FoodWaterIntake-to-WaterEntry" style="stroke:#181818;stroke-width:1.0;"/><polygon fill="#181818" points="63.5,441.52,67.5,432.52,63.5,436.52,59.5,432.52,63.5,441.52" style="stroke:#181818;stroke-width:1.0;"/><polygon fill="#000000" points="26.5,387.4855,29.4389,378.4404,23.5611,378.4404,26.5,387.4855" style="stroke:#000000;stroke-width:1.0;"/><text fill="#000000" font-family="sans-serif" font-size="13" lengthAdjust="spacing" textLength="27.46" x="35.5" y="387.8683">uses</text></g><!--SRC=[TPDDRzim38Rl-XL2BWK614WFso670alN5GLsA9OLFQisOmjHH8DYa7N3_ljeEt7quPuIl-z3KVpGZNu9eCasBI-DRnpem6JwJ-siXw1tI9h06RReGskxeCBU-iwGEGm4ltUWaRZ5oF1OGu1EttvUHIePln_KrKgrjWPTMQeSH4JbJ0XVcSc-7HcUAlHR-mVqAaSsfjetX4TVtwEJ2xwsbejpDaWrq0Xid4GeTQE_mKukFG8GrF2hlrl-HGBel-gVEclFXW9GhBpO-6lBIAQ1M98phBU-sK88qgqaDZlhal47DatgFFm6gco0BGyjZwrxuwgZJ0AJW4SoNViC98Cw65z1wQ7r76Bv9noihzEyZsXSSaF4-jKmq9DdiuVSUl1Cxx4ui94wjJfP7dsot2RhPeZm5DGqWkMnMzxb_LdheqnBtqMOG5CPytPUmJnrcUEyEtHbtbhSBiQnhdL587aAuhn2y-6oJPEXpcIkNsG7EqupGcqv9dhtqwBOmBMMbP3gOdHi_iXVYo-vOGvzohG7XLrEeK0-d8IIQY_LvNkyxcljePwP_66N9qlb1VT5pRJh3Hpw9cX62IfYX5lMUF9zp9T5yG9blYZtjdx8cBj9jFoF7kcrpBm1v-qSdyjrFt9AiEXPJTn_]--></g></svg>